<svg width="24" height="24" viewBox="0 0 24 24" fill="none" xmlns="http://www.w3.org/2000/svg">
<path d="M9 22C9.55228 22 10 21.5523 10 21C10 20.4477 9.55228 20 9 20C8.44771 20 8 20.4477 8 21C8 21.5523 8.44771 22 9 22Z" stroke="black" stroke-width="1.1" stroke-linecap="round" stroke-linejoin="round"/>
<path d="M19.9999 22C20.5522 22 20.9999 21.5523 20.9999 21C20.9999 20.4477 20.5522 20 19.9999 20C19.4477 20 18.9999 20.4477 18.9999 21C18.9999 21.5523 19.4477 22 19.9999 22Z" stroke="black" stroke-width="1.1" stroke-linecap="round" stroke-linejoin="round"/>
<path d="M0.999939 1.00003H4.99994L7.67994 14.39C7.77138 14.8504 8.02185 15.264 8.38748 15.5583C8.75312 15.8527 9.21064 16.009 9.67994 16H19.3999C19.8692 16.009 20.3268 15.8527 20.6924 15.5583C21.058 15.264 21.3085 14.8504 21.3999 14.39L22.9999 6.00003H5.99994" stroke="black" stroke-width="1.1" stroke-linecap="round" stroke-linejoin="round"/>
</svg>
